<?xml version="1.0" encoding="utf-8"?>
<!-- Generator: Adobe Illustrator 21.1.0, SVG Export Plug-In . SVG Version: 6.00 Build 0)  -->
<svg version="1.1" id="Layer_1" xmlns="http://www.w3.org/2000/svg" xmlns:xlink="http://www.w3.org/1999/xlink" x="0px" y="0px"
	 viewBox="0 0 125 125" style="enable-background:new 0 0 125 125;" xml:space="preserve">
<style type="text/css">
	.st0{fill:#543729;}
	.st1{fill:#00ACEE;}
	.st2{fill:#2BAF2B;}
	.st3{fill:#FFCC2F;}
	.st4{fill:#CECECE;}
	.st5{fill:#EF5734;}
	.st6{fill:#FFFFFF;}
</style>
<path class="st0" d="M121.5,63.4c-6.2-5.9-37-9.6-46.8-10.7c0.5-1.1,0.9-2.3,1.2-3.5c1.4-0.6,2.8-1.1,4.2-1.6c0.2,0.5,1,2.6,1.5,3.5
	c19.6,0.5,20.6-14.6,21.4-18.7c0.8-4,0.7-7.9,7.5-15.1c-10-2.9-24.4,4.5-29.2,15.6c-1.8-0.7-3.6-1.2-5.4-1.5
	c-1.3-5.2-8-19.7-25.6-19.7C28,11.9,3.8,30.3,3.8,61.4c0,26.1,17.8,49,27.9,49c4.4,0,8.2-3.3,9.1-6.3c0.7,2,3,8.3,3.8,9.9
	c1.1,2.4,6.2,4.4,8.5,2c2.9,1.6,8.2,2.6,11.1-1.7c5.6,1.2,10.5-2.1,10.6-6.1c2.7-0.1,4.1-4,3.5-7c-0.4-2.2-5.1-10.3-7-13.1
	c3.6,2.9,12.8,3.8,13.9,0c5.8,4.6,15,2.2,15.7-1.6c7.1,1.8,15.2-2.2,13.9-7.1C126.1,78.7,124.7,66.5,121.5,63.4L121.5,63.4z"/>
<path class="st1" d="M89.7,37.6c2.5-4.9,5.5-10.2,9.4-13.5c-4.3,1.7-8.5,6.9-11,12.4c-1.3-0.8-2.5-1.5-3.9-2.2
	c3.5-7.5,11.6-13.7,20.6-14.2c-6,5.4-3.9,16.7-8.8,22.7C94.6,41.4,91.4,38.7,89.7,37.6L89.7,37.6z M85.8,45.5c0-0.2,0.1-1.6,0.2-2.3
	c-0.3-0.1-2.5-0.5-3.6-0.5c-0.1,1.4,0.6,3.8,1.2,5.2c4.6-0.1,7.8-1.5,9.8-2.7c-1.6-0.8-4.5-1.5-6.6-1.9
	C86.6,43.9,86.1,45.1,85.8,45.5L85.8,45.5z"/>
<path class="st2" d="M68.9,84.1L68.9,84.1c-0.6-1.2-1.2-2.7-1.9-4.7c2.9,4.1,11.8,2,11.3-1.7c4.4,3.3,13.4-0.5,11.3-5.2
	c4.4,2,9.4-2.1,8.3-3.9c7.5,1.4,14.6,2.9,16.9,3.5c-1.5,2.4-4.9,4.2-10,3c2.8,3.8-2.6,8.3-10.1,5.8c1.6,3.7-5,7-12.6,3.2
	C82.2,87.7,72.7,88.2,68.9,84.1L68.9,84.1z M83.7,65.3c8.7,0.7,23,2,31.9,3.2c-0.6-2.9-2.1-3.7-6.9-5
	C103.5,64.1,90.4,65.4,83.7,65.3z"/>
<path class="st3" d="M78.3,77.6c4.4,3.3,13.4-0.5,11.3-5.2c4.4,2,9.4-2.1,8.3-3.9c-8.8-1.7-18.1-3.4-20.2-3.7c1.3,0.1,3.4,0.2,6,0.4
	c6.6,0,19.8-1.3,25-1.8c-8.4-2.1-25.5-5.2-37.3-6c-0.5,0.8-1.6,2.2-3.3,3.6c-5.2,11-14.6,18.2-24.9,18.2c-3,0-6.4-0.5-10.2-1.7
	c-2.4,2.5-12.4,4.5-20.6,0.4c6.5,15.2,21.5,25.3,38.2,25.3c14,0,20.2-14.3,18.9-18.1c-0.3-0.9-1.6-4-2.4-5.9
	C69.9,83.5,78.8,81.4,78.3,77.6L78.3,77.6z"/>
<path class="st4" d="M69.8,48.8c1.2-0.7,5.5-3.3,9.6-4.2c-0.1-0.5-0.1-0.9-0.1-1.4c-2.7,0.6-7.7,2.8-10.6-0.2
	c6.1,1.8,9.1-1.6,13.6-1.6c2.7,0,6.5,0.7,9.5,1.9c-2.4-2.2-10.3-9-20.2-9C69.4,37,67.1,42.7,69.8,48.8L69.8,48.8z"/>
<path class="st5" d="M32.9,77.6c3.8,1.2,7.2,1.7,10.2,1.7c10.4,0,19.8-7.3,24.9-18.2c-3.8,3.2-10.5,5.9-20.9,5.9
	c9.3-2.1,17.2-6.7,21.3-13.5c-2.8-4.5-5.9-14.6,1.9-22.5c-1.2-3.9-7.1-14.1-20-14.1C27.7,17,8.9,36,8.9,61.4c0,6,1.2,11.6,3.4,16.7
	C20.5,82.1,30.6,80.2,32.9,77.6L32.9,77.6z"/>
<path class="st3" d="M39.7,39c0,5.8,4.7,10.5,10.5,10.5c5.8,0,10.5-4.7,10.5-10.5c0-5.8-4.7-10.5-10.5-10.5
	C44.4,28.5,39.7,33.2,39.7,39L39.7,39z"/>
<path class="st0" d="M43.9,39c0,3.5,2.8,6.3,6.3,6.3c3.5,0,6.3-2.8,6.3-6.3s-2.8-6.3-6.3-6.3C46.7,32.7,43.9,35.5,43.9,39L43.9,39z"
	/>
<ellipse class="st6" cx="50.2" cy="36.2" rx="3.6" ry="2.3"/>
</svg>
