<?xml version="1.0" encoding="utf-8"?>
<!-- Generator: Adobe Illustrator 21.1.0, SVG Export Plug-In . SVG Version: 6.00 Build 0)  -->
<svg version="1.1" id="Layer_2" xmlns="http://www.w3.org/2000/svg" xmlns:xlink="http://www.w3.org/1999/xlink" x="0px" y="0px"
	 viewBox="0 0 125 125" style="enable-background:new 0 0 125 125;" xml:space="preserve">
<style type="text/css">
	.st0{fill:#FFFFFF;}
	.st1{fill:#F48120;}
	.st2{fill:#FAAD3F;}
</style>
<path class="st0" d="M111.8,57.2l-13.9-3.2l-2.5-1l-63.7,0.5v30.7l80.1,0.2L111.8,57.2z"/>
<path class="st1" d="M85.8,81.4c0.7-2.5,0.5-5-0.7-6.4s-3-2.5-5.2-2.7l-43.1-0.5c-0.2,0-0.5-0.2-0.7-0.2c-0.2-0.2-0.2-0.5,0-0.7
	c0.2-0.5,0.5-0.7,1-0.7l43.4-0.5c5.2-0.2,10.7-4.5,12.6-9.4l2.5-6.4c0-0.2,0.2-0.5,0-0.7c-2.7-12.6-14.1-22.1-27.5-22.1
	c-12.4,0-23,7.9-26.8,19.1c-2.5-1.7-5.5-2.7-8.9-2.5c-5.9,0.5-10.7,5.5-11.4,11.4c-0.2,1.5,0,3,0.2,4.5c-9.7,0.2-17.6,8.2-17.6,18.1
	c0,1,0,1.7,0.2,2.7c0,0.5,0.5,0.7,0.7,0.7H84c0.5,0,1-0.2,1-0.7L85.8,81.4z"/>
<path class="st2" d="M99.4,53.7h-1.2c-0.2,0-0.5,0.2-0.7,0.5l-1.7,5.9c-0.7,2.5-0.5,5,0.7,6.4s3,2.5,5.2,2.7l9.2,0.5
	c0.2,0,0.5,0.2,0.7,0.2c0.2,0.2,0.2,0.5,0,0.7c-0.2,0.5-0.5,0.7-1,0.7l-9.4,0.5c-5.2,0.2-10.7,4.5-12.6,9.4L88,83.7
	c-0.2,0.2,0,0.7,0.5,0.7h32.7c0.5,0,0.7-0.2,0.7-0.7c0.5-2,1-4.2,1-6.4C123,64.3,112.3,53.7,99.4,53.7"/>
</svg>
