<?xml version="1.0" encoding="utf-8"?>
<!-- Generator: Adobe Illustrator 21.1.0, SVG Export Plug-In . SVG Version: 6.00 Build 0)  -->
<svg version="1.1" id="Layer_1" xmlns="http://www.w3.org/2000/svg" xmlns:xlink="http://www.w3.org/1999/xlink" x="0px" y="0px"
	 viewBox="0 0 1608 1800" style="enable-background:new 0 0 1608 1800;" xml:space="preserve">
<style type="text/css">
	.st0{fill:none;}
	.st1{fill:#2062AF;}
	.st2{fill:#3C9CD7;}
	.st3{fill:#FFFFFF;}
	.st4{fill:url(#SVGID_1_);}
	.st5{fill:url(#SVGID_2_);}
	.st6{fill:url(#SVGID_3_);}
	.st7{opacity:5.000000e-02;enable-background:new    ;}
	.st8{fill:url(#SVGID_4_);}
</style>
<path class="st0" d="M-450-566h2500v2500H-450V-566z"/>
<path class="st1" d="M1432.3,1603.8L800,1774.1l-632.3-170.2L21.8,23.2h1556.3L1432.3,1603.8z"/>
<path class="st2" d="M800,151.2v1487.1l1.4,0.4l511.7-137.8l118.1-1349.7L800,151.2L800,151.2z"/>
<path class="st3" d="M799.4,546.4L346.9,734.9l15,186.6l437.5-187.1l465.4-199l19.3-190.9L799.4,546.4L799.4,546.4z"/>
<linearGradient id="SVGID_1_" gradientUnits="userSpaceOnUse" x1="-696.498" y1="-301.292" x2="-696.498" y2="-382.093" gradientTransform="matrix(4.6418 0 0 4.6418 3806.1609 2320.0378)">
	<stop  offset="0.387" style="stop-color:#D1D3D4;stop-opacity:0"/>
	<stop  offset="1" style="stop-color:#D1D3D4"/>
</linearGradient>
<path class="st4" d="M346.9,734.9l15,186.6l437.5-187.1v-188L346.9,734.9z"/>
<linearGradient id="SVGID_2_" gradientUnits="userSpaceOnUse" x1="-595.541" y1="-341.593" x2="-595.541" y2="-425.582" gradientTransform="matrix(4.6418 0 0 4.6418 3806.1609 2320.0378)">
	<stop  offset="0.387" style="stop-color:#D1D3D4;stop-opacity:0"/>
	<stop  offset="1" style="stop-color:#D1D3D4"/>
</linearGradient>
<path class="st5" d="M1284.1,344.6L799.4,546.4v188l465.4-199L1284.1,344.6z"/>
<linearGradient id="SVGID_3_" gradientUnits="userSpaceOnUse" x1="-745.093" y1="-265.254" x2="-551.028" y2="-265.254" gradientTransform="matrix(4.6418 0 0 4.6418 3806.1609 2320.0378)">
	<stop  offset="0" style="stop-color:#E8E7E5"/>
	<stop  offset="1" style="stop-color:#FFFFFF"/>
</linearGradient>
<path class="st6" d="M347.6,734.9l15,186.6l671.3,2.1l-15,248.8L798,1234.6L585.6,1181l-12.9-154.4H375.5l25.7,298.1l398.9,118
	l396.8-115.8l51.5-591.9H347.6z"/>
<path class="st7" d="M799.4,734.9H346.9l15,186.6l437.5,1.4L799.4,734.9L799.4,734.9z M799.4,1234l-2.1,0.6L585,1181l-12.9-154.4
	H374.8l25.7,298.1l398.9,118V1234z"/>
<linearGradient id="SVGID_4_" gradientUnits="userSpaceOnUse" x1="-754.022" y1="-405.021" x2="-543.33" y2="-405.021" gradientTransform="matrix(4.6418 0 0 4.6418 3806.1609 2320.0378)">
	<stop  offset="0" style="stop-color:#E8E7E5"/>
	<stop  offset="1" style="stop-color:#FFFFFF"/>
</linearGradient>
<path class="st8" d="M306.1,344.6h978l-19.3,190.9H329.7L306.1,344.6L306.1,344.6z"/>
<path class="st7" d="M799.4,344.6H306.1l23.6,190.9h469.7L799.4,344.6L799.4,344.6z"/>
</svg>
