<?xml version="1.0" encoding="utf-8"?>
<!-- Generator: Adobe Illustrator 21.1.0, SVG Export Plug-In . SVG Version: 6.00 Build 0)  -->
<svg version="1.1" id="Layer_1" xmlns="http://www.w3.org/2000/svg" xmlns:xlink="http://www.w3.org/1999/xlink" x="0px" y="0px"
	 viewBox="0 0 125 125" style="enable-background:new 0 0 125 125;" xml:space="preserve">
<style type="text/css">
	.st0{fill:#CAC9C2;}
	.st1{fill:#FFFFFF;}
	.st2{fill:#5072AA;}
	.st3{fill:#4D6796;}
	.st4{fill:#CC4232;}
	.st5{fill:#B23F33;}
	.st6{fill:#ECB02A;}
	.st7{fill:#C79732;}
</style>
<path class="st0" d="M41.4,98.6L20.3,62.1l21.1-36.5h42.2l21.1,36.5L83.6,98.6H41.4"/>
<path class="st1" d="M63.2,78.8c-9.1,0-16.4-7.4-16.4-16.4c0-9.1,7.4-16.4,16.4-16.4c9.1,0,16.4,7.4,16.4,16.4
	C79.6,71.4,72.2,78.8,63.2,78.8"/>
<path class="st2" d="M96.2,13.3c-1.3-2.2-4.5-4.1-7.1-4.1h-52c-2.6,0-5.8,1.8-7.1,4.1L15,39.6c-0.1,1.7,0.2,3.5,0.9,4.8L26.2,62
	l18.4-31.7h58c1.4,0,2.9,0.5,4.2,1.3L96.2,13.3"/>
<path class="st3" d="M15.6,38.5L15,39.6c-0.1,1.7,0.2,3.5,0.9,4.8L26.2,62l5.5-9.4L15.6,38.5"/>
<path class="st1" d="M38.6,22.8c-1.8,0-3.2-1.4-3.2-3.2c0-1.8,1.4-3.2,3.2-3.2c1.8,0,3.2,1.4,3.2,3.2C41.7,21.3,40.3,22.8,38.6,22.8
	 M90.5,19.6c0,1.6-1.3,3-2.9,3c-1.6,0-3-1.3-3-2.9c0,0,0,0,0-0.1c0-1.6,1.4-2.9,3-2.9C89.2,16.7,90.5,18,90.5,19.6z"/>
<g>
	<path class="st4" d="M122.2,58.3l-15.4-26.7c-1.3-0.8-2.9-1.3-4.2-1.3H81.6l18.1,31.9l-28.6,50.6c-0.6,1.1-1.7,2.1-2.9,2.8h21
		c2.6,0,5.8-1.8,7.1-4.1l26-45C123.5,64.2,123.5,60.6,122.2,58.3"/>
	<path class="st5" d="M107.5,32.8l-0.7-1.2c-1.3-0.8-2.9-1.3-4.2-1.3H81.7l5.4,9.6L107.5,32.8"/>
	<path class="st1" d="M87.6,107.8c-1.8,0-3.2-1.4-3.2-3.2c0-1.8,1.4-3.2,3.2-3.2c1.8,0,3.2,1.4,3.2,3.2
		C90.8,106.4,89.3,107.8,87.6,107.8 M112.3,65.5c-1.8,0-3.2-1.4-3.2-3.2c0-1.8,1.4-3.2,3.2-3.2c1.8,0,3.2,1.4,3.2,3.2
		C115.5,64.1,114,65.5,112.3,65.5"/>
</g>
<g>
	<path class="st6" d="M45,94l-29-49.6c-0.7-1.3-1.1-3.1-0.9-4.8L4.2,58.3c-1.3,2.2-1.3,5.9,0,8.1l26,45c1.3,2.2,4.5,4.1,7.1,4.1
		h30.9c1.2-0.7,2.3-1.7,2.9-2.8L81.7,94L45,94"/>
	<path class="st7" d="M66.4,115.6h1.8c1.2-0.7,2.3-1.7,2.9-2.8L81.7,94H70.4L66.4,115.6"/>
	<path class="st1" d="M38.6,107.8c-1.8,0-3.2-1.4-3.2-3.2c0-1.8,1.4-3.2,3.2-3.2c1.8,0,3.2,1.4,3.2,3.2
		C41.7,106.4,40.3,107.8,38.6,107.8 M13.8,65.5c-1.8,0-3.2-1.4-3.2-3.2c0-1.8,1.4-3.2,3.2-3.2c1.8,0,3.2,1.4,3.2,3.2
		C17,64.1,15.6,65.5,13.8,65.5"/>
</g>
</svg>
