<?xml version="1.0" encoding="utf-8"?>
<!-- Generator: Adobe Illustrator 21.1.0, SVG Export Plug-In . SVG Version: 6.00 Build 0)  -->
<svg version="1.1" id="Layer_1" xmlns="http://www.w3.org/2000/svg" xmlns:xlink="http://www.w3.org/1999/xlink" x="0px" y="0px"
	 viewBox="0 0 1773 2026" style="enable-background:new 0 0 1773 2026;" xml:space="preserve">
<style type="text/css">
	.st0{fill:#E44D26;}
	.st1{fill:#F16529;}
	.st2{fill:#EBEBEB;}
	.st3{fill:#FFFFFF;}
</style>
<path class="st0" d="M1769.8,16.1l-160.9,1803l-723.5,200.6l-721.5-200.3L3.1,16.1H1769.8L1769.8,16.1z"/>
<path class="st1" d="M886.4,1866.4l584.6-162.1l137.5-1540.8H886.4V1866.4z"/>
<path class="st2" d="M573.5,605.9h312.9V384.7H331.8l5.3,59.3l54.4,609.5h494.9V832.3H593.8L573.5,605.9z M623.4,1164.1h-222
	l31,347.3l453.1,125.8l1-0.3v-230.1l-1,0.3l-246.3-66.5L623.4,1164.1L623.4,1164.1z"/>
<path class="st3" d="M885.7,1053.5H1158l-25.7,286.8l-246.7,66.6V1637l453.4-125.7l3.3-37.4l52-582.3l5.4-59.4H885.7V1053.5
	L885.7,1053.5z M885.7,605.3v0.5h534.2l4.4-49.7l10.1-112.1l5.3-59.3h-554V605.3L885.7,605.3z"/>
</svg>
