<?xml version="1.0" encoding="utf-8"?>
<!-- Generator: Adobe Illustrator 17.1.0, SVG Export Plug-In . SVG Version: 6.00 Build 0)  -->
<!DOCTYPE svg PUBLIC "-//W3C//DTD SVG 1.1//EN" "http://www.w3.org/Graphics/SVG/1.1/DTD/svg11.dtd">
<svg version="1.1" id="Layer_1" xmlns="http://www.w3.org/2000/svg" xmlns:xlink="http://www.w3.org/1999/xlink" x="0px" y="0px"
	 width="216px" height="216px" viewBox="0 0 216 216" enable-background="new 0 0 216 216" xml:space="preserve">
<g>
	<g>
		<rect fill="#2474BB" width="216" height="216"/>
		<g enable-background="new    ">
			<path fill="#FFFFFF" d="M37.1,177l-4.3,15.4h-2.1l-3.2-11.3c-0.1-0.5-0.2-1-0.2-1.6h0c-0.1,0.5-0.1,1-0.3,1.5l-3.2,11.3h-2.1
				L17.2,177h2l3.3,11.8c0.1,0.5,0.2,1,0.3,1.5h0c0-0.4,0.1-0.9,0.3-1.5l3.4-11.8h1.7l3.3,11.9c0.1,0.4,0.2,0.9,0.3,1.4h0
				c0-0.4,0.1-0.9,0.3-1.5l3.1-11.8H37.1z"/>
			<path fill="#FFFFFF" d="M41.2,177.4c0,0.3-0.1,0.6-0.3,0.8c-0.2,0.2-0.5,0.3-0.8,0.3c-0.3,0-0.6-0.1-0.8-0.3
				c-0.2-0.2-0.3-0.5-0.3-0.8c0-0.3,0.1-0.6,0.3-0.8c0.2-0.2,0.5-0.3,0.8-0.3c0.3,0,0.6,0.1,0.8,0.3
				C41.1,176.8,41.2,177.1,41.2,177.4z M40.9,192.3h-1.8v-11h1.8V192.3z"/>
			<path fill="#FFFFFF" d="M53.6,192.3h-1.8v-6.3c0-2.3-0.9-3.5-2.6-3.5c-0.9,0-1.6,0.3-2.2,1s-0.9,1.5-0.9,2.5v6.3h-1.8v-11h1.8
				v1.8h0c0.8-1.4,2-2.1,3.6-2.1c1.2,0,2.1,0.4,2.8,1.2c0.6,0.8,0.9,1.9,0.9,3.3V192.3z"/>
			<path fill="#FFFFFF" d="M66.2,192.3h-1.8v-1.9h0c-0.8,1.4-2.1,2.1-3.8,2.1c-1.4,0-2.4-0.5-3.3-1.4c-0.9-1-1.3-2.3-1.3-4.1
				c0-1.8,0.5-3.3,1.4-4.4s2.1-1.6,3.7-1.6c1.5,0,2.6,0.6,3.3,1.8h0v-6.8h1.8V192.3z M64.5,187.4v-1.6c0-0.9-0.3-1.6-0.9-2.2
				c-0.6-0.6-1.3-0.9-2.3-0.9c-1.1,0-1.9,0.4-2.5,1.2c-0.6,0.8-0.9,1.9-0.9,3.3c0,1.3,0.3,2.3,1,3.1c0.6,0.7,1.4,1,2.3,1
				c1,0,1.8-0.4,2.4-1.1C64.2,189.3,64.5,188.4,64.5,187.4z"/>
			<path fill="#FFFFFF" d="M79.8,186.8c0,1.8-0.5,3.2-1.5,4.2s-2.3,1.6-4,1.6c-1.7,0-3-0.5-3.9-1.6c-0.9-1-1.4-2.4-1.4-4
				c0-1.9,0.5-3.4,1.6-4.4c1-1,2.3-1.5,4-1.5c1.6,0,2.9,0.5,3.8,1.5S79.8,185,79.8,186.8z M78,186.9c0-1.4-0.3-2.5-1-3.2
				c-0.6-0.7-1.5-1.1-2.6-1.1c-1.1,0-2,0.4-2.6,1.1c-0.7,0.8-1,1.8-1,3.2c0,1.3,0.3,2.3,1,3.1s1.6,1.1,2.7,1.1c1.2,0,2-0.4,2.6-1.1
				C77.7,189.3,78,188.2,78,186.9z"/>
			<path fill="#FFFFFF" d="M96.3,181.4l-3.3,11h-1.8l-2.3-7.9c-0.1-0.3-0.1-0.6-0.2-1h0c0,0.2-0.1,0.6-0.2,1l-2.5,7.9h-1.8l-3.3-11
				h1.8l2.3,8.3c0.1,0.3,0.1,0.6,0.2,1h0.1c0-0.3,0.1-0.6,0.2-1l2.5-8.2h1.6l2.3,8.3c0.1,0.3,0.1,0.6,0.2,1h0.1c0-0.3,0.1-0.6,0.2-1
				l2.2-8.3H96.3z"/>
			<path fill="#FFFFFF" d="M104.4,189.4c0,0.9-0.3,1.6-1,2.2c-0.7,0.6-1.7,1-3,1c-1,0-2-0.2-2.7-0.7v-1.9c0.9,0.7,1.8,1.1,2.9,1.1
				c1.4,0,2.1-0.5,2.1-1.5c0-0.4-0.2-0.8-0.5-1.1c-0.3-0.3-0.9-0.6-1.8-1c-0.9-0.4-1.6-0.8-2-1.2c-0.5-0.5-0.7-1.2-0.7-2
				c0-0.9,0.4-1.7,1.1-2.3c0.7-0.6,1.7-0.9,2.8-0.9c0.9,0,1.7,0.2,2.3,0.5v1.8c-0.7-0.5-1.6-0.8-2.5-0.8c-0.6,0-1.1,0.1-1.4,0.4
				c-0.4,0.3-0.5,0.7-0.5,1.1c0,0.5,0.1,0.9,0.4,1.1c0.3,0.3,0.8,0.6,1.7,0.9c0.9,0.4,1.6,0.8,2,1.2
				C104.1,187.9,104.4,188.6,104.4,189.4z"/>
		</g>
	</g>
	<g>
		<polygon fill="#FFFFFF" points="102.8,92.4 156,92.4 156,45.6 102.8,53 		"/>
		<polygon fill="#FFFFFF" points="100.6,92.4 100.6,53.3 60,59 60,92.4 		"/>
		<polygon fill="#FFFFFF" points="100.6,94.6 60,94.6 60,128.1 100.6,133.8 		"/>
		<polygon fill="#FFFFFF" points="102.8,94.6 102.8,134.1 156,141.5 156,94.6 		"/>
	</g>
</g>
</svg>
