<?xml version="1.0" encoding="utf-8"?>
<!-- Generator: Adobe Illustrator 21.1.0, SVG Export Plug-In . SVG Version: 6.00 Build 0)  -->
<svg version="1.1" id="Layer_1" xmlns="http://www.w3.org/2000/svg" xmlns:xlink="http://www.w3.org/1999/xlink" x="0px" y="0px"
	 viewBox="0 0 125 125" style="enable-background:new 0 0 125 125;" xml:space="preserve">
<style type="text/css">
	.st0{fill:#4D8DF7;}
</style>
<g>
	<path class="st0" d="M111.5,26.4c1-1.5,1.6-3.3,1.6-5.2c0-5.2-4.2-9.4-9.4-9.4c-1.9,0-3.7,0.6-5.2,1.6C88.4,6,75.9,1.6,62.4,1.6
		C28.8,1.6,1.5,28.8,1.5,62.5c0,33.7,27.3,60.9,60.9,60.9c33.7,0,60.9-27.3,60.9-60.9C123.4,49,119,36.5,111.5,26.4z M102.2,102.3
		c-5.2,5.2-11.2,9.2-17.9,12.1c-6.9,2.9-14.3,4.4-21.9,4.4s-15-1.5-21.9-4.4c-6.7-2.8-12.7-6.9-17.9-12.1s-9.2-11.2-12.1-17.9
		c-2.9-6.9-4.4-14.3-4.4-21.9s1.5-15,4.4-21.9c2.8-6.7,6.9-12.7,12.1-17.9s11.2-9.2,17.9-12.1c6.9-2.9,14.3-4.4,21.9-4.4
		c7.6,0,15,1.5,21.9,4.4c3.9,1.7,7.6,3.8,11.1,6.2c-0.7,1.3-1,2.7-1,4.3c0,5.2,4.2,9.4,9.4,9.4c1.6,0,3-0.4,4.3-1
		c2.5,3.4,4.6,7.1,6.2,11.1c2.9,6.9,4.4,14.3,4.4,21.9c0,7.6-1.5,15-4.4,21.9C111.5,91.1,107.4,97.1,102.2,102.3z"/>
	<circle class="st0" cx="62.4" cy="62.5" r="28.1"/>
</g>
</svg>
