<svg xmlns="http://www.w3.org/2000/svg" viewBox="0 0 32 32"><style type="text/css">  
	.st0{fill:#3C7739;}
</style><polygon class="st0" points="15.9 14.4 11.5 10 12.5 9 15.9 12.4 22.3 6 23.3 7 "/><path class="st0" d="M23.6 18.8c0.1-0.6 0-1.2-0.3-1.7 -0.3-0.4-0.7-0.6-1.1-0.7 -0.1 0-0.2 0-0.3 0 -0.9 0-1.7 0.7-1.9 1.8 -0.1 0.6 0 1.2 0.3 1.7 0.3 0.4 0.7 0.6 1.1 0.7 0.1 0 0.2 0 0.3 0C22.6 20.6 23.4 19.9 23.6 18.8z"/><path class="st0" d="M16.3 21.4c0.5-0.1 0.9-0.4 1.2-0.8 0.3-0.5 0.5-1.2 0.4-1.8 -0.2-1.1-1-1.9-2-1.9 -0.1 0-0.2 0-0.3 0 -0.5 0.1-0.9 0.4-1.2 0.8 -0.3 0.5-0.5 1.2-0.4 1.8 0.2 1.1 1 1.9 2 1.9C16.1 21.4 16.2 21.4 16.3 21.4z"/><path class="st0" d="M20.1 26c0-0.3-0.2-2.2-0.3-2.9 -0.2-0.7-0.3-1-0.8-1.3 -0.5-0.2-0.8-0.3-1-0.3s-0.3 0.1-0.4 0.2l0 0c-0.5 0.4-1 0.6-1.5 0.6s-1-0.2-1.5-0.6l0 0c-0.1-0.1-0.2-0.2-0.4-0.2s-0.5 0.1-1 0.3c-0.5 0.2-0.7 0.6-0.8 1.3C12.2 23.8 12 25.7 12 26H20.1z"/><path class="st0" d="M20.4 22.9c0.1 0.4 0.1 0.8 0.2 1.4h4.8c0-0.5-0.1-1.7-0.2-2.3 -0.1-0.6-0.3-0.9-0.8-1.2 -0.5-0.2-0.8-0.3-0.9-0.3s-0.2 0.1-0.3 0.1l0 0c-0.5 0.4-1 0.6-1.6 0.6 -0.5 0-1-0.2-1.6-0.6l0 0c-0.1-0.1-0.2-0.1-0.3-0.1 -0.2 0-0.4 0.1-0.9 0.3 -0.1 0-0.2 0.1-0.2 0.1 0.2 0.1 0.4 0.1 0.6 0.3C20 21.6 20.3 22.2 20.4 22.9z"/><path class="st0" d="M10.5 20.6c0.1 0 0.2 0 0.3 0 0.4-0.1 0.8-0.3 1.1-0.7 0.3-0.5 0.4-1.1 0.3-1.7 -0.2-1-1-1.8-1.9-1.8 -0.1 0-0.2 0-0.3 0 -0.4 0.1-0.8 0.3-1.1 0.7 -0.3 0.5-0.4 1.1-0.3 1.7C8.8 19.8 9.6 20.6 10.5 20.6z"/><path class="st0" d="M12.9 21.2c0.2-0.1 0.4-0.2 0.6-0.3 -0.1 0-0.1-0.1-0.2-0.1 -0.5-0.2-0.8-0.3-0.9-0.3 -0.1 0-0.2 0.1-0.3 0.1l0 0c-0.5 0.4-1 0.6-1.6 0.6 -0.5 0-1-0.2-1.6-0.6l0 0c-0.1-0.1-0.2-0.1-0.3-0.1 -0.2 0-0.4 0.1-0.9 0.3C7.2 21.1 7 21.4 6.9 22s-0.3 1.8-0.3 2.3h4.8c0.1-0.7 0.2-1 0.3-1.4C11.8 22.2 12.1 21.6 12.9 21.2z"/></svg>