<?xml version="1.0" encoding="utf-8"?>
<!-- Generator: Adobe Illustrator 21.1.0, SVG Export Plug-In . SVG Version: 6.00 Build 0)  -->
<svg version="1.1" id="Layer_1" xmlns="http://www.w3.org/2000/svg" xmlns:xlink="http://www.w3.org/1999/xlink" x="0px" y="0px"
	 viewBox="0 0 125 125" style="enable-background:new 0 0 125 125;" xml:space="preserve">
<style type="text/css">
	.st0{fill:#B58F52;}
	.st1{fill:#C78431;}
	.st2{fill:#E9812C;}
	.st3{fill:#E5712A;}
	.st4{fill:#9D8469;}
	.st5{fill:#797B7B;}
</style>
<path class="st0" d="M82.6,79.8L36.7,68.7l2.2-9.2l45.9,11.1L82.6,79.8"/>
<path class="st1" d="M85.7,68.8L43.6,47.3l4.3-8.4L90,60.4L85.7,68.8"/>
<path class="st2" d="M92.2,57.4L56.6,26.3l6.2-7.1l35.6,31.1L92.2,57.4"/>
<path class="st3" d="M102,47.4L75.4,8.3L83.2,3l26.5,39.1L102,47.4"/>
<path class="st4" d="M81.9,91.3l-47.2-2.6l0.5-9.4l47.2,2.6L81.9,91.3"/>
<path class="st5" d="M91.6,113.5V74.4h9.4l0,48.6H15.6l0-48.7h9.5v39.2L91.6,113.5"/>
<path class="st5" d="M34.5,94.7h47.6v9.5H34.5V94.7L34.5,94.7z"/>
</svg>
