<?xml version="1.0" encoding="utf-8"?>
<!-- Generator: Adobe Illustrator 21.1.0, SVG Export Plug-In . SVG Version: 6.00 Build 0)  -->
<svg version="1.1" id="Layer_1" xmlns="http://www.w3.org/2000/svg" xmlns:xlink="http://www.w3.org/1999/xlink" x="0px" y="0px"
	 viewBox="0 0 125 125" style="enable-background:new 0 0 125 125;" xml:space="preserve">
<style type="text/css">
	.st0{fill:#4FB74C;}
	.st1{fill:#FFFFFF;}
</style>
<path class="st0" d="M39.1,2.5h69.7c7.6,0,13.7,6.1,13.7,13.7v68.6c0,20.8-16.9,37.7-37.7,37.7H40c-20.7,0-37.5-16.8-37.5-37.5V39.1
	C2.5,18.9,18.9,2.5,39.1,2.5"/>
<path class="st1" d="M98.5,25.3v46.5c0,15.4-12.5,27.9-27.9,27.9H55.3c-15.9,0-28.8-12.9-28.8-28.8V37.8c0-6.9,5.6-12.5,12.5-12.5
	h4.3v45.2c0,7.5,6.1,13.6,13.6,13.6h11.4c7.4,0,13.4-6,13.4-13.4v-33c0-6.8,5.5-12.3,12.3-12.3H98.5"/>
</svg>
