<?xml version="1.0" encoding="utf-8"?>
<!-- Generator: Adobe Illustrator 21.1.0, SVG Export Plug-In . SVG Version: 6.00 Build 0)  -->
<svg version="1.1" id="Layer_1" xmlns="http://www.w3.org/2000/svg" xmlns:xlink="http://www.w3.org/1999/xlink" x="0px" y="0px"
	 viewBox="0 0 125 125" style="enable-background:new 0 0 125 125;" xml:space="preserve">
<style type="text/css">
	.st0{fill:#EC2027;}
	.st1{mask:url(#b);}
	.st2{fill:url(#SVGID_1_);}
	.st3{fill:#FFFFFF;}
</style>
<filter  filterUnits="userSpaceOnUse" height="14.862" id="a" width="22.428" x="96.414" y="2.083">
	<feColorMatrix  values="1 0 0 0 0 0 1 0 0 0 0 0 1 0 0 0 0 0 1 0"></feColorMatrix>
</filter>
<path class="st0" d="M122.5,74c0,6.6-5.3,11.9-11.9,11.9h-47c-6.6,0-11.9-5.3-11.9-11.9V51c0-6.6,5.3-11.9,11.9-11.9h47
	c6.6,0,11.9,5.3,11.9,11.9L122.5,74L122.5,74z"/>
<defs>
	<filter id="Adobe_OpacityMaskFilter" filterUnits="userSpaceOnUse" x="97.9" y="41.2" width="22.2" height="14.7">
		<feColorMatrix  type="matrix" values="1 0 0 0 0  0 1 0 0 0  0 0 1 0 0  0 0 0 1 0"/>
	</filter>
</defs>
<mask maskUnits="userSpaceOnUse" x="97.9" y="41.2" width="22.2" height="14.7" id="b">
	
		<image style="overflow:visible;filter:url(#a);enable-background:new    ;" width="29" height="20" xlink:href="3F2623AF.jpg"  transform="matrix(0.955 0 0 0.9397 95.3088 39.179)">
	</image>
</mask>
<g class="st1">
	
		<linearGradient id="SVGID_1_" gradientUnits="userSpaceOnUse" x1="-1468.1329" y1="-568.0798" x2="-1468.3564" y2="-567.6928" gradientTransform="matrix(20.6002 0 0 20.6002 30357.0977 11743.917)">
		<stop  offset="0" style="stop-color:#FFFFFF"/>
		<stop  offset="9.300000e-02" style="stop-color:#FEF5F5"/>
		<stop  offset="0.252" style="stop-color:#FCDADB"/>
		<stop  offset="0.457" style="stop-color:#F9AEB1"/>
		<stop  offset="0.7" style="stop-color:#F47176"/>
		<stop  offset="0.973" style="stop-color:#EE242C"/>
		<stop  offset="1" style="stop-color:#ED1C24"/>
	</linearGradient>
	<path class="st2" d="M97.9,41.7c0,0,21.6-3,22.2,6.5v7.7L97.9,41.7z"/>
</g>
<g>
	<path class="st3" d="M63.6,76.4V51.6h-4.9v-4.9h14v4.9h-4.9v24.8H63.6z M86,54.1v22.3h-3.9v-2.2c-0.8,1.9-2,2.8-3.6,2.8
		c-2.6,0-3.8-1.8-3.8-5.4V54.1h3.8v14.6c0,1.2,0.1,2,0.2,2.6c0.2,0.9,0.7,1.3,1.5,1.3c0.8,0,1.3-0.5,1.6-1.4
		c0.1-0.6,0.2-1.5,0.2-2.8V54.1H86L86,54.1z M89.4,76.4V46.7h4V56c0.7-1.7,1.8-2.5,3.4-2.5c2,0,3.3,1.4,4,4.3c0.3,1.5,0.5,4,0.5,7.5
		c0,3.5-0.2,5.9-0.5,7.4c-0.7,2.8-2,4.2-4,4.2c-1.7,0-2.8-1-3.5-2.9v2.3L89.4,76.4L89.4,76.4z M95.4,57.8c-1.1,0-1.8,1.1-2,3.4
		c-0.1,0.5-0.1,2.1-0.1,4.9c0,2.2,0,3.5,0.1,4.1c0.3,1.7,0.9,2.5,1.9,2.5c1,0,1.6-1,1.8-3c0.1-0.4,0.1-1.9,0.1-4.4
		c0-2.6,0-4.1-0.1-4.4C96.9,58.8,96.4,57.8,95.4,57.8z M111.8,68.7h3.7c0,0.1,0,0.2,0,0.4c0,0.2,0,0.3,0,0.4c0,2.6-0.5,4.4-1.4,5.6
		c-0.9,1.2-2.4,1.8-4.4,1.8c-2.1,0-3.6-0.7-4.5-2.1c-0.7-1.1-1.2-2.8-1.4-4.9c-0.1-1-0.1-2.7-0.1-5.4c0-2.1,0-3.6,0.1-4.5
		c0.2-1.8,0.6-3.2,1.2-4.2c1-1.6,2.6-2.3,4.8-2.3c2.1,0,3.7,0.8,4.6,2.5c0.8,1.4,1.2,4.1,1.2,8.2v1.7h-7.8c0,0.2,0,0.7,0,1.4
		c0,1.7,0.1,2.8,0.2,3.5c0.3,1.5,0.9,2.2,1.8,2.2C111.1,73.1,111.8,71.6,111.8,68.7L111.8,68.7z M107.8,62.4h3.8v-0.9
		c0-1.3-0.1-2.2-0.3-2.7c-0.3-0.9-0.8-1.3-1.7-1.3c-0.7,0-1.2,0.3-1.5,0.9c-0.4,0.7-0.5,1.8-0.4,3.1l0,0.3
		C107.8,62,107.8,62.2,107.8,62.4z"/>
</g>
<g>
	<path d="M8.5,76.5V63.9l-6-17.2h4.7l3.5,11.2l3.4-11.2h4.6l-5.9,17.2v12.7H8.5L8.5,76.5z M20.2,65.3c0-3.9,0.3-6.6,0.9-8.2
		c0.9-2.4,2.6-3.6,5.2-3.6c2.6,0,4.3,1.2,5.2,3.6c0.6,1.6,0.9,4.3,0.9,8.2c0,3.9-0.3,6.6-0.9,8.2c-0.9,2.4-2.6,3.6-5.2,3.6
		c-2.6,0-4.3-1.2-5.2-3.6C20.5,71.9,20.2,69.2,20.2,65.3L20.2,65.3z M24.3,65.6c0,2.8,0,4.3,0,4.5c0.2,2,0.8,3,1.9,3
		c1.1,0,1.7-0.9,1.9-2.6c0-0.4,0.1-1.8,0.1-4.2v-2.2c0-2.3,0-3.6-0.1-4.1c-0.2-1.7-0.9-2.6-1.9-2.6c-1,0-1.6,0.7-1.9,2.2
		c-0.1,0.5-0.1,1.7-0.1,3.8L24.3,65.6L24.3,65.6z M46.7,54.1v22.4h-3.9v-2.2c-0.8,1.9-2,2.8-3.6,2.8c-2.6,0-3.8-1.8-3.8-5.4V54.1
		h3.9v14.6c0,1.2,0.1,2.1,0.2,2.6c0.2,0.9,0.7,1.3,1.5,1.3c0.8,0,1.3-0.5,1.6-1.5c0.1-0.6,0.2-1.5,0.2-2.8V54.1H46.7L46.7,54.1z"/>
</g>
</svg>
