<svg id="Layer_1" xmlns="http://www.w3.org/2000/svg" viewBox="0 0 125 125"><style>.st0{fill:#543729}.st1{fill:#00acee}.st2{fill:#2baf2b}.st3{fill:#ffcc2f}.st4{fill:#cecece}.st5{fill:#ef5734}.st6{fill:#fff}</style><path class="st0" d="M121.5 63.4c-6.2-5.9-37-9.6-46.8-10.7.5-1.1.9-2.3 1.2-3.5 1.4-.6 2.8-1.1 4.2-1.6.2.5 1 2.6 1.5 3.5 19.6.5 20.6-14.6 21.4-18.7.8-4 .7-7.9 7.5-15.1-10-2.9-24.4 4.5-29.2 15.6-1.8-.7-3.6-1.2-5.4-1.5-1.3-5.2-8-19.7-25.6-19.7C28 11.9 3.8 30.3 3.8 61.4c0 26.1 17.8 49 27.9 49 4.4 0 8.2-3.3 9.1-6.3.7 2 3 8.3 3.8 9.9 1.1 2.4 6.2 4.4 8.5 2 2.9 1.6 8.2 2.6 11.1-1.7 5.6 1.2 10.5-2.1 10.6-6.1 2.7-.1 4.1-4 3.5-7-.4-2.2-5.1-10.3-7-13.1 3.6 2.9 12.8 3.8 13.9 0 5.8 4.6 15 2.2 15.7-1.6 7.1 1.8 15.2-2.2 13.9-7.1 11.3-.7 9.9-12.9 6.7-16z"/><path class="st1" d="M89.7 37.6c2.5-4.9 5.5-10.2 9.4-13.5-4.3 1.7-8.5 6.9-11 12.4-1.3-.8-2.5-1.5-3.9-2.2 3.5-7.5 11.6-13.7 20.6-14.2-6 5.4-3.9 16.7-8.8 22.7-1.4-1.4-4.6-4.1-6.3-5.2zm-3.9 7.9c0-.2.1-1.6.2-2.3-.3-.1-2.5-.5-3.6-.5-.1 1.4.6 3.8 1.2 5.2 4.6-.1 7.8-1.5 9.8-2.7-1.6-.8-4.5-1.5-6.6-1.9-.2.6-.7 1.8-1 2.2z"/><path class="st2" d="M68.9 84.1c-.6-1.2-1.2-2.7-1.9-4.7 2.9 4.1 11.8 2 11.3-1.7 4.4 3.3 13.4-.5 11.3-5.2 4.4 2 9.4-2.1 8.3-3.9 7.5 1.4 14.6 2.9 16.9 3.5-1.5 2.4-4.9 4.2-10 3 2.8 3.8-2.6 8.3-10.1 5.8 1.6 3.7-5 7-12.6 3.2.1 3.6-9.4 4.1-13.2 0zm14.8-18.8c8.7.7 23 2 31.9 3.2-.6-2.9-2.1-3.7-6.9-5-5.2.6-18.3 1.9-25 1.8z"/><path class="st3" d="M78.3 77.6c4.4 3.3 13.4-.5 11.3-5.2 4.4 2 9.4-2.1 8.3-3.9-8.8-1.7-18.1-3.4-20.2-3.7 1.3.1 3.4.2 6 .4 6.6 0 19.8-1.3 25-1.8-8.4-2.1-25.5-5.2-37.3-6-.5.8-1.6 2.2-3.3 3.6-5.2 11-14.6 18.2-24.9 18.2-3 0-6.4-.5-10.2-1.7-2.4 2.5-12.4 4.5-20.6.4 6.5 15.2 21.5 25.3 38.2 25.3 14 0 20.2-14.3 18.9-18.1-.3-.9-1.6-4-2.4-5.9 2.8 4.3 11.7 2.2 11.2-1.6z"/><path class="st4" d="M69.8 48.8c1.2-.7 5.5-3.3 9.6-4.2-.1-.5-.1-.9-.1-1.4-2.7.6-7.7 2.8-10.6-.2 6.1 1.8 9.1-1.6 13.6-1.6 2.7 0 6.5.7 9.5 1.9-2.4-2.2-10.3-9-20.2-9-2.2 2.7-4.5 8.4-1.8 14.5z"/><path class="st5" d="M32.9 77.6c3.8 1.2 7.2 1.7 10.2 1.7 10.4 0 19.8-7.3 24.9-18.2-3.8 3.2-10.5 5.9-20.9 5.9 9.3-2.1 17.2-6.7 21.3-13.5-2.8-4.5-5.9-14.6 1.9-22.5-1.2-3.9-7.1-14.1-20-14.1C27.7 17 8.9 36 8.9 61.4c0 6 1.2 11.6 3.4 16.7 8.2 4 18.3 2.1 20.6-.5z"/><path class="st3" d="M39.7 39c0 5.8 4.7 10.5 10.5 10.5S60.7 44.8 60.7 39 56 28.5 50.2 28.5 39.7 33.2 39.7 39z"/><path class="st0" d="M43.9 39c0 3.5 2.8 6.3 6.3 6.3s6.3-2.8 6.3-6.3-2.8-6.3-6.3-6.3-6.3 2.8-6.3 6.3z"/><ellipse class="st6" cx="50.2" cy="36.2" rx="3.6" ry="2.3"/></svg>