<svg id="Layer_2" xmlns="http://www.w3.org/2000/svg" viewBox="0 0 125 125"><style>.st0{fill:#fff}.st1{fill:#f48120}.st2{fill:#faad3f}</style><path class="st0" d="M111.8 57.2L97.9 54l-2.5-1-63.7.5v30.7l80.1.2V57.2z"/><path class="st1" d="M85.8 81.4c.7-2.5.5-5-.7-6.4s-3-2.5-5.2-2.7l-43.1-.5c-.2 0-.5-.2-.7-.2-.2-.2-.2-.5 0-.7.2-.5.5-.7 1-.7l43.4-.5c5.2-.2 10.7-4.5 12.6-9.4l2.5-6.4c0-.2.2-.5 0-.7-2.7-12.6-14.1-22.1-27.5-22.1-12.4 0-23 7.9-26.8 19.1-2.5-1.7-5.5-2.7-8.9-2.5-5.9.5-10.7 5.5-11.4 11.4-.2 1.5 0 3 .2 4.5-9.7.2-17.6 8.2-17.6 18.1 0 1 0 1.7.2 2.7 0 .5.5.7.7.7H84c.5 0 1-.2 1-.7l.8-3z"/><path class="st2" d="M99.4 53.7h-1.2c-.2 0-.5.2-.7.5l-1.7 5.9c-.7 2.5-.5 5 .7 6.4s3 2.5 5.2 2.7l9.2.5c.2 0 .5.2.7.2.2.2.2.5 0 .7-.2.5-.5.7-1 .7l-9.4.5c-5.2.2-10.7 4.5-12.6 9.4l-.6 2.5c-.2.2 0 .7.5.7h32.7c.5 0 .7-.2.7-.7.5-2 1-4.2 1-6.4.1-13-10.6-23.6-23.5-23.6"/></svg>