<svg id="Layer_1" xmlns="http://www.w3.org/2000/svg" viewBox="0 0 1608 1800"><style>.st0{fill:none}.st1{fill:#2062af}.st2{fill:#3c9cd7}.st3{fill:#fff}.st4{fill:url(#SVGID_1_)}.st5{fill:url(#SVGID_2_)}.st6{fill:url(#SVGID_3_)}.st7{opacity:5e-2;enable-background:new}.st8{fill:url(#SVGID_4_)}</style><path class="st0" d="M-450-566h2500v2500H-450V-566z"/><path class="st1" d="M1432.3 1603.8L800 1774.1l-632.3-170.2L21.8 23.2h1556.3l-145.8 1580.6z"/><path class="st2" d="M800 151.2v1487.1l1.4.4 511.7-137.8 118.1-1349.7H800z"/><path class="st3" d="M799.4 546.4L346.9 734.9l15 186.6 437.5-187.1 465.4-199 19.3-190.9-484.7 201.9z"/><linearGradient id="SVGID_1_" gradientUnits="userSpaceOnUse" x1="-696.498" y1="-301.292" x2="-696.498" y2="-382.093" gradientTransform="translate(3806.16 2320.038) scale(4.6418)"><stop offset=".387" stop-color="#d1d3d4" stop-opacity="0"/><stop offset="1" stop-color="#d1d3d4"/></linearGradient><path class="st4" d="M346.9 734.9l15 186.6 437.5-187.1v-188L346.9 734.9z"/><linearGradient id="SVGID_2_" gradientUnits="userSpaceOnUse" x1="-595.541" y1="-341.593" x2="-595.541" y2="-425.582" gradientTransform="translate(3806.16 2320.038) scale(4.6418)"><stop offset=".387" stop-color="#d1d3d4" stop-opacity="0"/><stop offset="1" stop-color="#d1d3d4"/></linearGradient><path class="st5" d="M1284.1 344.6L799.4 546.4v188l465.4-199 19.3-190.8z"/><linearGradient id="SVGID_3_" gradientUnits="userSpaceOnUse" x1="-745.093" y1="-265.254" x2="-551.028" y2="-265.254" gradientTransform="translate(3806.16 2320.038) scale(4.6418)"><stop offset="0" stop-color="#e8e7e5"/><stop offset="1" stop-color="#fff"/></linearGradient><path class="st6" d="M347.6 734.9l15 186.6 671.3 2.1-15 248.8-220.9 62.2-212.4-53.6-12.9-154.4H375.5l25.7 298.1 398.9 118 396.8-115.8 51.5-591.9H347.6z"/><path class="st7" d="M799.4 734.9H346.9l15 186.6 437.5 1.4v-188zm0 499.1l-2.1.6L585 1181l-12.9-154.4H374.8l25.7 298.1 398.9 118V1234z"/><linearGradient id="SVGID_4_" gradientUnits="userSpaceOnUse" x1="-754.022" y1="-405.021" x2="-543.33" y2="-405.021" gradientTransform="translate(3806.16 2320.038) scale(4.6418)"><stop offset="0" stop-color="#e8e7e5"/><stop offset="1" stop-color="#fff"/></linearGradient><path class="st8" d="M306.1 344.6h978l-19.3 190.9H329.7l-23.6-190.9z"/><path class="st7" d="M799.4 344.6H306.1l23.6 190.9h469.7V344.6z"/></svg>