<svg id="Layer_1" xmlns="http://www.w3.org/2000/svg" viewBox="0 0 125 125"><style>.st0{fill:#cac9c2}.st1{fill:#fff}.st2{fill:#5072aa}.st3{fill:#4d6796}.st4{fill:#cc4232}.st5{fill:#b23f33}.st6{fill:#ecb02a}.st7{fill:#c79732}</style><path class="st0" d="M41.4 98.6L20.3 62.1l21.1-36.5h42.2l21.1 36.5-21.1 36.5H41.4"/><path class="st1" d="M63.2 78.8c-9.1 0-16.4-7.4-16.4-16.4 0-9.1 7.4-16.4 16.4-16.4 9.1 0 16.4 7.4 16.4 16.4 0 9-7.4 16.4-16.4 16.4"/><path class="st2" d="M96.2 13.3c-1.3-2.2-4.5-4.1-7.1-4.1h-52c-2.6 0-5.8 1.8-7.1 4.1L15 39.6c-.1 1.7.2 3.5.9 4.8L26.2 62l18.4-31.7h58c1.4 0 2.9.5 4.2 1.3L96.2 13.3"/><path class="st3" d="M15.6 38.5l-.6 1.1c-.1 1.7.2 3.5.9 4.8L26.2 62l5.5-9.4-16.1-14.1"/><path class="st1" d="M38.6 22.8c-1.8 0-3.2-1.4-3.2-3.2 0-1.8 1.4-3.2 3.2-3.2 1.8 0 3.2 1.4 3.2 3.2-.1 1.7-1.5 3.2-3.2 3.2m51.9-3.2c0 1.6-1.3 3-2.9 3-1.6 0-3-1.3-3-2.9v-.1c0-1.6 1.4-2.9 3-2.9s2.9 1.3 2.9 2.9z"/><path class="st4" d="M122.2 58.3l-15.4-26.7c-1.3-.8-2.9-1.3-4.2-1.3h-21l18.1 31.9-28.6 50.6c-.6 1.1-1.7 2.1-2.9 2.8h21c2.6 0 5.8-1.8 7.1-4.1l26-45c1.2-2.3 1.2-5.9-.1-8.2"/><path class="st5" d="M107.5 32.8l-.7-1.2c-1.3-.8-2.9-1.3-4.2-1.3H81.7l5.4 9.6 20.4-7.1"/><path class="st1" d="M87.6 107.8c-1.8 0-3.2-1.4-3.2-3.2 0-1.8 1.4-3.2 3.2-3.2 1.8 0 3.2 1.4 3.2 3.2 0 1.8-1.5 3.2-3.2 3.2m24.7-42.3c-1.8 0-3.2-1.4-3.2-3.2 0-1.8 1.4-3.2 3.2-3.2 1.8 0 3.2 1.4 3.2 3.2 0 1.8-1.5 3.2-3.2 3.2"/><path class="st6" d="M45 94L16 44.4c-.7-1.3-1.1-3.1-.9-4.8L4.2 58.3c-1.3 2.2-1.3 5.9 0 8.1l26 45c1.3 2.2 4.5 4.1 7.1 4.1h30.9c1.2-.7 2.3-1.7 2.9-2.8L81.7 94H45"/><path class="st7" d="M66.4 115.6h1.8c1.2-.7 2.3-1.7 2.9-2.8L81.7 94H70.4l-4 21.6"/><path class="st1" d="M38.6 107.8c-1.8 0-3.2-1.4-3.2-3.2 0-1.8 1.4-3.2 3.2-3.2 1.8 0 3.2 1.4 3.2 3.2-.1 1.8-1.5 3.2-3.2 3.2M13.8 65.5c-1.8 0-3.2-1.4-3.2-3.2 0-1.8 1.4-3.2 3.2-3.2 1.8 0 3.2 1.4 3.2 3.2 0 1.8-1.4 3.2-3.2 3.2"/></svg>