<svg id="Layer_1" xmlns="http://www.w3.org/2000/svg" viewBox="0 0 1773 2026"><style>.st0{fill:#e44d26}.st1{fill:#f16529}.st2{fill:#ebebeb}.st3{fill:#fff}</style><path class="st0" d="M1769.8 16.1l-160.9 1803-723.5 200.6-721.5-200.3L3.1 16.1h1766.7z"/><path class="st1" d="M886.4 1866.4l584.6-162.1 137.5-1540.8H886.4v1702.9z"/><path class="st2" d="M573.5 605.9h312.9V384.7H331.8l5.3 59.3 54.4 609.5h494.9V832.3H593.8l-20.3-226.4zm49.9 558.2h-222l31 347.3 453.1 125.8 1-.3v-230.1l-1 .3-246.3-66.5-15.8-176.5z"/><path class="st3" d="M885.7 1053.5H1158l-25.7 286.8-246.7 66.6V1637l453.4-125.7 3.3-37.4 52-582.3 5.4-59.4h-514v221.3zm0-448.2v.5h534.2l4.4-49.7 10.1-112.1 5.3-59.3h-554v220.6z"/></svg>