<svg xmlns="http://www.w3.org/2000/svg" width="216" height="216" viewBox="0 0 216 216"><path fill="#2474BB" d="M0 0h216v216H0z"/><path d="M37.1 177l-4.3 15.4h-2.1l-3.2-11.3c-.1-.5-.2-1-.2-1.6-.1.5-.1 1-.3 1.5l-3.2 11.3h-2.1L17.2 177h2l3.3 11.8.3 1.5c0-.4.1-.9.3-1.5l3.4-11.8h1.7l3.3 11.9c.1.4.2.9.3 1.4 0-.4.1-.9.3-1.5l3.1-11.8h1.9zm4.1.4c0 .3-.1.6-.3.8-.2.2-.5.3-.8.3-.3 0-.6-.1-.8-.3-.2-.2-.3-.5-.3-.8 0-.3.1-.6.3-.8.2-.2.5-.3.8-.3.3 0 .6.1.8.3.2.2.3.5.3.8zm-.3 14.9h-1.8v-11h1.8v11zm12.7 0h-1.8V186c0-2.3-.9-3.5-2.6-3.5-.9 0-1.6.3-2.2 1s-.9 1.5-.9 2.5v6.3h-1.8v-11h1.8v1.8c.8-1.4 2-2.1 3.6-2.1 1.2 0 2.1.4 2.8 1.2.6.8.9 1.9.9 3.3v6.8zm12.6 0h-1.8v-1.9c-.8 1.4-2.1 2.1-3.8 2.1-1.4 0-2.4-.5-3.3-1.4-.9-1-1.3-2.3-1.3-4.1 0-1.8.5-3.3 1.4-4.4s2.1-1.6 3.7-1.6c1.5 0 2.6.6 3.3 1.8V176h1.8v16.3zm-1.7-4.9v-1.6c0-.9-.3-1.6-.9-2.2-.6-.6-1.3-.9-2.3-.9-1.1 0-1.9.4-2.5 1.2-.6.8-.9 1.9-.9 3.3 0 1.3.3 2.3 1 3.1.6.7 1.4 1 2.3 1 1 0 1.8-.4 2.4-1.1.6-.9.9-1.8.9-2.8zm15.3-.6c0 1.8-.5 3.2-1.5 4.2s-2.3 1.6-4 1.6c-1.7 0-3-.5-3.9-1.6-.9-1-1.4-2.4-1.4-4 0-1.9.5-3.4 1.6-4.4 1-1 2.3-1.5 4-1.5 1.6 0 2.9.5 3.8 1.5s1.4 2.4 1.4 4.2zm-1.8.1c0-1.4-.3-2.5-1-3.2-.6-.7-1.5-1.1-2.6-1.1s-2 .4-2.6 1.1c-.7.8-1 1.8-1 3.2 0 1.3.3 2.3 1 3.1s1.6 1.1 2.7 1.1c1.2 0 2-.4 2.6-1.1.6-.7.9-1.8.9-3.1zm18.3-5.5l-3.3 11h-1.8l-2.3-7.9c-.1-.3-.1-.6-.2-1 0 .2-.1.6-.2 1l-2.5 7.9h-1.8l-3.3-11h1.8l2.3 8.3c.1.3.1.6.2 1h.1c0-.3.1-.6.2-1l2.5-8.2h1.6l2.3 8.3c.1.3.1.6.2 1h.1c0-.3.1-.6.2-1l2.2-8.3h1.7zm8.1 8c0 .9-.3 1.6-1 2.2-.7.6-1.7 1-3 1-1 0-2-.2-2.7-.7V190c.9.7 1.8 1.1 2.9 1.1 1.4 0 2.1-.5 2.1-1.5 0-.4-.2-.8-.5-1.1-.3-.3-.9-.6-1.8-1s-1.6-.8-2-1.2c-.5-.5-.7-1.2-.7-2 0-.9.4-1.7 1.1-2.3.7-.6 1.7-.9 2.8-.9.9 0 1.7.2 2.3.5v1.8c-.7-.5-1.6-.8-2.5-.8-.6 0-1.1.1-1.4.4-.4.3-.5.7-.5 1.1 0 .5.1.9.4 1.1.3.3.8.6 1.7.9.9.4 1.6.8 2 1.2.5.6.8 1.3.8 2.1zm-1.6-97H156V45.6L102.8 53zm-2.2 0V53.3L60 59v33.4zm0 2.2H60v33.5l40.6 5.7zm2.2 0v39.5l53.2 7.4V94.6z" fill="#FFF"/></svg>