<svg id="Layer_1" xmlns="http://www.w3.org/2000/svg" viewBox="0 0 125 125"><style>.st0{fill:#4d8df7}</style><path class="st0" d="M111.5 26.4c1-1.5 1.6-3.3 1.6-5.2 0-5.2-4.2-9.4-9.4-9.4-1.9 0-3.7.6-5.2 1.6A60.93 60.93 0 0 0 62.4 1.6C28.8 1.6 1.5 28.8 1.5 62.5s27.3 60.9 60.9 60.9c33.7 0 60.9-27.3 60.9-60.9.1-13.5-4.3-26-11.8-36.1zm-9.3 75.9c-5.2 5.2-11.2 9.2-17.9 12.1-6.9 2.9-14.3 4.4-21.9 4.4s-15-1.5-21.9-4.4c-6.7-2.8-12.7-6.9-17.9-12.1s-9.2-11.2-12.1-17.9c-2.9-6.9-4.4-14.3-4.4-21.9s1.5-15 4.4-21.9c2.8-6.7 6.9-12.7 12.1-17.9s11.2-9.2 17.9-12.1c6.9-2.9 14.3-4.4 21.9-4.4 7.6 0 15 1.5 21.9 4.4 3.9 1.7 7.6 3.8 11.1 6.2-.7 1.3-1 2.7-1 4.3 0 5.2 4.2 9.4 9.4 9.4 1.6 0 3-.4 4.3-1 2.5 3.4 4.6 7.1 6.2 11.1 2.9 6.9 4.4 14.3 4.4 21.9 0 7.6-1.5 15-4.4 21.9-2.8 6.7-6.9 12.7-12.1 17.9z"/><circle class="st0" cx="62.4" cy="62.5" r="28.1"/></svg>