<svg id="Layer_1" xmlns="http://www.w3.org/2000/svg" width="248.9" height="206" viewBox="0 0 248.9 206"><style>.st0{fill:none;stroke:#1b75bc;stroke-width:2;stroke-miterlimit:10}.st1{fill:#2b93e6}</style><path class="st0" d="M176.5 28.1c-3.4-2.8-5.2-4.1-9.2-6.4-2.8-1.6-5.6-2.8-8.5-3.9-6-2.2-12-4.4-18.4-5.3-4.7-.7-9.3-1.3-14.1-1.5-8.8-.4-18.5.8-27.1 2.8-8.9 2.1-17.9 5.3-25.3 10.8-3.4 2.5-7.2 4.3-10.6 6.9-3.2 2.5-5.7 5.8-8.6 8.5-1.8 1.7-3.3 3.4-4.7 5.5-1.4 2-2.8 3.9-4.2 6-1.4 2-2.3 4.2-3.7 6.3-2.2 3.3-3 6.3-4.2 10.1-1.6 4.8-3.5 9.5-5 14.3-3.1 9.9-2.8 21.1-1.8 31.3.4 4.6 1.1 9 1.8 13.5.3 1.8.4 3.4 1 5 .6 1.7 1 3.5 1.6 5.1 1.6 4 3.9 7.8 5.7 11.8 1.1 2.5 2.7 5 4.3 7.2 1.1 1.4 1.4 3.2 2.4 4.6 1 1.4 2.7 2.8 4 4.1.9.9 1.8 1.7 2.6 2.6 1.5 1.8 3.2 3.3 4.6 5 1.5 2 3.7 3.1 5.6 4.7.9.8 1.5 1.8 2.4 2.5.8.6 1.7 1.1 2.5 1.8 3.2 2.8 7.5 4.5 11.2 6.4 3 1.5 6 2.4 9 3.8 5.4 2.5 11.4 3.5 17.2 4.6 6.4 1.2 12.9.8 19.3 1.5 6.5.6 12.2-.8 18.4-1.7 6.2-.9 12.6-3.5 18.2-6.3 2.5-1.3 5.1-2.5 7.6-3.9 2.7-1.6 5.3-3.2 7.9-4.9 4.1-2.7 7.4-6.7 11-10.1 1.2-1.1 2.5-2.2 3.7-3.3 3.3-3.2 5.8-7.3 7.8-11.3.5-1 1.4-1.9 2-2.9 1.3-2 2.8-3.8 4-5.9 1.7-3 3.4-6.7 4.5-10 1.1-3.4 2.6-7 3.3-10.5.8-4 1.5-7.7 1.9-11.7.5-4.7.1-9 .1-13.7 0-2.4.3-4.7.2-7.1-.1-2-1.3-3.8-1.6-5.8-.3-2.2-.1-4.5-.5-6.8-.9-4.7-2.8-9.1-4.5-13.5-1.2-3.2-2.9-6.6-4.9-9.2-2-2.6-3.1-5.7-5.2-8.2-.9-1.1-1.2-1.3-2.2-2.4"/><path class="st1" d="M105.8 140.4c1.2.6 2.5 1 3.8 1.6 2.3 1 4.8 1.5 7.2 1.9 2.7.5 5.4.3 8.2.6 2.7.3 5.2-.3 7.8-.7 2.6-.4 5.3-1.5 7.7-2.6 1.1-.5 2.1-1 3.2-1.7l3.3-2.1c1.7-1.1 3.1-2.8 4.6-4.3.5-.5 1-.9 1.6-1.4 1.4-1.3 2.4-3.1 3.3-4.8.2-.4.6-.8.8-1.2.6-.8 1.2-1.6 1.7-2.5.7-1.3 1.4-2.8 1.9-4.2.5-1.4 1.1-2.9 1.4-4.4.3-1.7.6-3 .8-4.9.2-2 0-3.8 0-5.8 0-1 .1-2 .1-3 0-.9-.6-1.6-.7-2.4-.1-.9 0-1.9-.2-2.9-.4-2-1.2-3.8-1.9-5.7-.5-1.3-1.2-2.8-2.1-3.9-.8-1.1-1.3-2.4-2.2-3.5-.8-1-1.7-2-2.6-3-.6-.7-1.4-1.3-2.1-1.9-.7-.6-1.4-1.3-2.1-2-2.3-2.1-4.5-3.9-7.1-5.5-1.2-.7-2.4-1.2-3.6-1.6-2.5-.9-5.1-1.8-7.8-2.3-2-.3-3.9-.5-6-.6-3.7-.2-7.8.3-11.4 1.2-3.8.9-7.5 2.2-10.7 4.6-1.4 1.1-3.1 1.8-4.5 2.9-1.3 1-2.4 2.4-3.6 3.6-.8.7-1.4 1.4-2 2.3-.6.8-1.2 1.7-1.8 2.5-.6.9-1 1.8-1.6 2.6-.9 1.4-1.3 2.7-1.8 4.2-.7 2-1.5 4-2.1 6.1-1.3 4.2-1.2 8.9-.8 13.2.2 1.9.5 3.8.8 5.7.1.7.2 1.4.4 2.1.3.7.4 1.5.7 2.2.7 1.7 1.7 3.3 2.4 5 .5 1.1 1.1 2.1 1.8 3 .4.6.6 1.4 1 2 .4.6 1.1 1.2 1.7 1.7.4.4.8.7 1.1 1.1.6.8 1.4 1.4 1.9 2.1.6.8 1.6 1.3 2.4 2 .4.3.6.8 1 1.1.3.3.7.5 1.1.8 1.7 1.3 3.5 2 5 2.8zm75.5-89c.5.3 1 .4 1.5.6.9.4 1.9.6 2.8.8 1.1.2 2.1.1 3.2.2s2-.1 3-.3c1-.1 2.1-.6 3-1 .4-.2.8-.4 1.2-.7.4-.3.9-.5 1.3-.8.7-.4 1.2-1.1 1.8-1.7l.6-.6c.5-.5 1-1.2 1.3-1.9.1-.2.2-.3.3-.5.2-.3.5-.6.7-1 .3-.5.6-1.1.7-1.6.2-.6.4-1.2.5-1.7.1-.7.3-1.3.3-1.9.1-.8 0-1.5 0-2.3v-1.2c0-.3-.2-.6-.3-1 0-.4 0-.7-.1-1.1-.2-.8-.5-1.5-.7-2.2-.2-.5-.5-1.1-.8-1.5-.3-.4-.4-1-.8-1.4-.3-.4-.7-.8-1-1.2-.2-.3-.5-.5-.8-.7-.3-.2-.5-.5-.8-.8-1.2-1.2-1.9-1.6-2.8-2.1-.5-.3-1-.4-1.5-.6-1-.4-2-.7-3-.9-.8-.1-1.5-.2-2.3-.3-1.5-.1-3 .1-4.5.5-1.5.3-2.9.9-4.2 1.8-.6.4-1.2.7-1.7 1.1-.5.4-.9 1-1.4 1.4-.3.3-.5.6-.8.9-.2.3-.5.6-.7 1-.2.3-.4.7-.6 1-.4.5-.5 1-.7 1.7-.3.8-.6 1.6-.8 2.4-.5 1.6-.5 3.5-.3 5.2.1.8.2 1.5.3 2.2 0 .3.1.6.2.8.1.3.2.6.3.8.3.7.6 1.3.9 2 .2.4.4.8.7 1.2.2.2.2.5.4.8.2.2.4.5.7.7l.4.4c.2.3.5.5.8.8.3.3.6.5.9.8.2.1.3.3.4.4.1.1.3.2.4.3.7.6 1.4.9 2 1.2z"/></svg>