<svg xmlns="http://www.w3.org/2000/svg" viewBox="0 0 32 32"><style>.st0{fill:#3c7739}</style><path class="st0" d="M15.9 14.4L11.5 10l1-1 3.4 3.4L22.3 6l1 1zm7.7 4.4c.1-.6 0-1.2-.3-1.7-.3-.4-.7-.6-1.1-.7h-.3c-.9 0-1.7.7-1.9 1.8-.1.6 0 1.2.3 1.7.3.4.7.6 1.1.7h.3c.9 0 1.7-.7 1.9-1.8zm-7.3 2.6c.5-.1.9-.4 1.2-.8.3-.5.5-1.2.4-1.8-.2-1.1-1-1.9-2-1.9h-.3c-.5.1-.9.4-1.2.8-.3.5-.5 1.2-.4 1.8.2 1.1 1 1.9 2 1.9h.3zm3.8 4.6c0-.3-.2-2.2-.3-2.9-.2-.7-.3-1-.8-1.3-.5-.2-.8-.3-1-.3s-.3.1-.4.2c-.5.4-1 .6-1.5.6s-1-.2-1.5-.6c-.1-.1-.2-.2-.4-.2s-.5.1-1 .3c-.5.2-.7.6-.8 1.3-.2.7-.4 2.6-.4 2.9h8.1z"/><path class="st0" d="M20.4 22.9c.1.4.1.8.2 1.4h4.8c0-.5-.1-1.7-.2-2.3-.1-.6-.3-.9-.8-1.2-.5-.2-.8-.3-.9-.3s-.2.1-.3.1c-.5.4-1 .6-1.6.6-.5 0-1-.2-1.6-.6-.1-.1-.2-.1-.3-.1-.2 0-.4.1-.9.3-.1 0-.2.1-.2.1.2.1.4.1.6.3.8.4 1.1 1 1.2 1.7zm-9.9-2.3h.3c.4-.1.8-.3 1.1-.7.3-.5.4-1.1.3-1.7-.2-1-1-1.8-1.9-1.8H10c-.4.1-.8.3-1.1.7-.3.5-.4 1.1-.3 1.7.2 1 1 1.8 1.9 1.8z"/><path class="st0" d="M12.9 21.2l.6-.3c-.1 0-.1-.1-.2-.1-.5-.2-.8-.3-.9-.3-.1 0-.2.1-.3.1-.5.4-1 .6-1.6.6-.5 0-1-.2-1.6-.6-.1-.1-.2-.1-.3-.1-.2 0-.4.1-.9.3-.5.3-.7.6-.8 1.2s-.3 1.8-.3 2.3h4.8c.1-.7.2-1 .3-1.4.1-.7.4-1.3 1.2-1.7z"/></svg>