<svg id="Layer_1" xmlns="http://www.w3.org/2000/svg" viewBox="0 0 125 125"><style>.st0{fill:#b58f52}.st1{fill:#c78431}.st2{fill:#e9812c}.st3{fill:#e5712a}.st4{fill:#9d8469}.st5{fill:#797b7b}</style><path class="st0" d="M82.6 79.8L36.7 68.7l2.2-9.2 45.9 11.1-2.2 9.2"/><path class="st1" d="M85.7 68.8L43.6 47.3l4.3-8.4L90 60.4l-4.3 8.4"/><path class="st2" d="M92.2 57.4L56.6 26.3l6.2-7.1 35.6 31.1-6.2 7.1"/><path class="st3" d="M102 47.4L75.4 8.3 83.2 3l26.5 39.1-7.7 5.3"/><path class="st4" d="M81.9 91.3l-47.2-2.6.5-9.4 47.2 2.6-.5 9.4"/><path class="st5" d="M91.6 113.5V74.4h9.4V123H15.6V74.3h9.5v39.2h66.5"/><path class="st5" d="M34.5 94.7h47.6v9.5H34.5v-9.5z"/></svg>