<svg id="Layer_1" xmlns="http://www.w3.org/2000/svg" xmlns:xlink="http://www.w3.org/1999/xlink" viewBox="0 0 125 125" enable-background="new 0 0 125 125"><style>.st0{fill:#ec2027}.st1{mask:url(#b)}.st2{fill:url(#SVGID_1_)}.st3{fill:#fff}</style><filter filterUnits="userSpaceOnUse" height="14.862" id="a" width="22.428" x="96.414" y="2.083"><feColorMatrix values="1 0 0 0 0 0 1 0 0 0 0 0 1 0 0 0 0 0 1 0"/></filter><path class="st0" d="M122.5 74c0 6.6-5.3 11.9-11.9 11.9h-47c-6.6 0-11.9-5.3-11.9-11.9V51c0-6.6 5.3-11.9 11.9-11.9h47c6.6 0 11.9 5.3 11.9 11.9v23z"/><defs><filter id="Adobe_OpacityMaskFilter" filterUnits="userSpaceOnUse" x="97.9" y="41.2" width="22.2" height="14.7"><feColorMatrix values="1 0 0 0 0 0 1 0 0 0 0 0 1 0 0 0 0 0 1 0"/></filter></defs><mask maskUnits="userSpaceOnUse" x="97.9" y="41.2" width="22.2" height="14.7" id="b"><image width="29" height="20" xlink:href="3F2623AF.jpg" transform="matrix(.955 0 0 .9397 95.309 39.179)" overflow="visible" filter="url(#a)" enable-background="new"/></mask><g class="st1"><linearGradient id="SVGID_1_" gradientUnits="userSpaceOnUse" x1="-1468.133" y1="-568.08" x2="-1468.356" y2="-567.693" gradientTransform="translate(30357.098 11743.917) scale(20.6002)"><stop offset="0" stop-color="#fff"/><stop offset=".093" stop-color="#fef5f5"/><stop offset=".252" stop-color="#fcdadb"/><stop offset=".457" stop-color="#f9aeb1"/><stop offset=".7" stop-color="#f47176"/><stop offset=".973" stop-color="#ee242c"/><stop offset="1" stop-color="#ed1c24"/></linearGradient><path class="st2" d="M97.9 41.7s21.6-3 22.2 6.5v7.7L97.9 41.7z"/></g><path class="st3" d="M63.6 76.4V51.6h-4.9v-4.9h14v4.9h-4.9v24.8h-4.2zM86 54.1v22.3h-3.9v-2.2c-.8 1.9-2 2.8-3.6 2.8-2.6 0-3.8-1.8-3.8-5.4V54.1h3.8v14.6c0 1.2.1 2 .2 2.6.2.9.7 1.3 1.5 1.3s1.3-.5 1.6-1.4c.1-.6.2-1.5.2-2.8V54.1h4zm3.4 22.3V46.7h4V56c.7-1.7 1.8-2.5 3.4-2.5 2 0 3.3 1.4 4 4.3.3 1.5.5 4 .5 7.5s-.2 5.9-.5 7.4c-.7 2.8-2 4.2-4 4.2-1.7 0-2.8-1-3.5-2.9v2.3l-3.9.1zm6-18.6c-1.1 0-1.8 1.1-2 3.4-.1.5-.1 2.1-.1 4.9 0 2.2 0 3.5.1 4.1.3 1.7.9 2.5 1.9 2.5 1 0 1.6-1 1.8-3 .1-.4.1-1.9.1-4.4 0-2.6 0-4.1-.1-4.4-.2-2.1-.7-3.1-1.7-3.1zm16.4 10.9h3.7v.8c0 2.6-.5 4.4-1.4 5.6-.9 1.2-2.4 1.8-4.4 1.8-2.1 0-3.6-.7-4.5-2.1-.7-1.1-1.2-2.8-1.4-4.9-.1-1-.1-2.7-.1-5.4 0-2.1 0-3.6.1-4.5.2-1.8.6-3.2 1.2-4.2 1-1.6 2.6-2.3 4.8-2.3 2.1 0 3.7.8 4.6 2.5.8 1.4 1.2 4.1 1.2 8.2v1.7h-7.8v1.4c0 1.7.1 2.8.2 3.5.3 1.5.9 2.2 1.8 2.2 1.3.1 2-1.4 2-4.3zm-4-6.3h3.8v-.9c0-1.3-.1-2.2-.3-2.7-.3-.9-.8-1.3-1.7-1.3-.7 0-1.2.3-1.5.9-.4.7-.5 1.8-.4 3.1v.3c.1.2.1.4.1.6z"/><path d="M8.5 76.5V63.9l-6-17.2h4.7l3.5 11.2 3.4-11.2h4.6l-5.9 17.2v12.7H8.5v-.1zm11.7-11.2c0-3.9.3-6.6.9-8.2.9-2.4 2.6-3.6 5.2-3.6s4.3 1.2 5.2 3.6c.6 1.6.9 4.3.9 8.2 0 3.9-.3 6.6-.9 8.2-.9 2.4-2.6 3.6-5.2 3.6s-4.3-1.2-5.2-3.6c-.6-1.6-.9-4.3-.9-8.2zm4.1.3v4.5c.2 2 .8 3 1.9 3 1.1 0 1.7-.9 1.9-2.6 0-.4.1-1.8.1-4.2v-2.2c0-2.3 0-3.6-.1-4.1-.2-1.7-.9-2.6-1.9-2.6-1 0-1.6.7-1.9 2.2-.1.5-.1 1.7-.1 3.8l.1 2.2zm22.4-11.5v22.4h-3.9v-2.2c-.8 1.9-2 2.8-3.6 2.8-2.6 0-3.8-1.8-3.8-5.4V54.1h3.9v14.6c0 1.2.1 2.1.2 2.6.2.9.7 1.3 1.5 1.3s1.3-.5 1.6-1.5c.1-.6.2-1.5.2-2.8V54.1h3.9z"/></svg>